<?xml version="1.0" standalone="no"?>
<!DOCTYPE svg PUBLIC "-//W3C//DTD SVG 20010904//EN"
 "http://www.w3.org/TR/2001/REC-SVG-20010904/DTD/svg10.dtd">
<svg version="1.0" xmlns="http://www.w3.org/2000/svg"
 width="500.000000pt" height="500.000000pt" viewBox="0 0 500.000000 500.000000"
 preserveAspectRatio="xMidYMid meet">
<metadata>
Created by potrace 1.16, written by Peter Selinger 2001-2019
</metadata>
<g transform="translate(0.000000,500.000000) scale(0.100000,-0.100000)"
fill="#000000" stroke="none">
<path d="M2355 4490 c-259 -20 -501 -88 -735 -205 -188 -94 -398 -234 -384
-257 4 -7 2 -8 -4 -4 -14 8 -223 -195 -298 -289 -158 -198 -303 -494 -368
-751 -116 -460 -65 -936 147 -1361 108 -218 190 -334 357 -507 117 -121 212
-201 333 -279 623 -405 1379 -442 2026 -101 379 200 691 525 869 904 244 521
262 1078 51 1605 -103 256 -249 474 -450 672 -126 123 -188 174 -310 253 -362
235 -817 353 -1234 320z m-537 -1733 c74 -342 138 -643 144 -669 6 -30 15 -48
24 -48 8 0 14 3 14 6 0 3 54 218 121 477 66 260 140 551 165 647 25 96 47 183
50 193 5 15 22 17 168 17 l163 0 30 -117 c17 -65 96 -367 174 -670 89 -344
148 -553 156 -553 6 0 14 8 17 18 3 9 66 300 141 646 74 346 138 639 141 652
l6 24 185 0 c171 0 184 -1 179 -17 -3 -10 -33 -137 -66 -283 -90 -395 -180
-790 -278 -1220 l-88 -385 -215 0 -214 0 -66 245 c-37 135 -110 407 -164 605
-53 198 -101 364 -107 370 -6 6 -11 6 -16 -2 -4 -7 -77 -284 -162 -617 l-155
-606 -212 0 c-193 0 -212 2 -217 18 -5 15 -163 703 -356 1547 -39 171 -73 318
-76 328 -5 16 8 17 188 17 l193 0 133 -623z"/>
</g>
</svg>
